# xmcd
#
# Track frame offsets:
#	150
#	16110
#	32789
#	45070
#	60318
#	75127
#	88903
#	103772
#	119731
#	133981
#	152095
#	170470
#	187247
#	203541
#	219441
#	231233
#	231832
#	232443
#	233050
#	233896
#	234605
#	235229
#	235853
#	236687
#	237406
#	238036
#	238637
#	239321
#	240232
#	240875
#	241519
#	242414
#	243055
#	243682
#	244366
#	245253
#	246084
#	246753
#	247494
#	248417
#	249038
#	249631
#	250274
#	251106
#	251794
#	252421
#	253037
#	253889
#	254523
#	255174
#	255848
#	256802
#	257555
#	258264
#	258981
#
# Disc length: 3461 seconds
#
# Revision: 1
# Processed by: cddbd v1.5.2PL0 Copyright (c) Steve Scherf et al.
# Submitted via: audiograbber 1.83.01
#
DISCID=e60d8337
DTITLE=Various Artist - CDX 620
DYEAR=2015
DGENRE=Country
TTITLE0=Jerrod Neimann - Blue Bandana
TTITLE1=Kacey Musgraves - Dime Store Cowgirl
TTITLE2=Canaan Smith - Hole In A Bottle
TTITLE3=William Michael Morgan - I Met A Girl
TTITLE4=David Nail - Nights On Fire
TTITLE5=Jennifer Nettles - Sugar
TTITLE6=Kayla Adams - Burn A Little Colder
TTITLE7=Macy Martin - Baby What Ya Doing
TTITLE8=Dick Barnes - Born That Way
TTITLE9=Lynn Anderson - Drift Away Gospel
TTITLE10=Adam Searan - Last
TTITLE11=James Robert Webb - Makin' Love Tonight
TTITLE12=Homegrown Band  - She Loves To Ride
TTITLE13=Donny Richmond with Elvis Presley's Musicians- - The World Keeps Lovin
TTITLE13=g Elvis
TTITLE14=Curtis Webb Project - Utility Man
TTITLE15=Josh Christina - Home Town Country (Liner)
TTITLE16=Josh Christina - Kickin' Country (Liner)
TTITLE17=Josh Christina - More of the Country You Love (Liner)
TTITLE18=Josh Christina - My New Single (Liner)
TTITLE19=Josh Christina - Super Country (Liner)
TTITLE20=Josh Christina - The Best In Country Music (Liner)
TTITLE21=Josh Christina - Today's Best Country (Liner)
TTITLE22=Josh Christina - Todays_Hot_Country_Music__Liner
TTITLE23=Mary Fletcher - Greatest Hits (Liner)
TTITLE24=Mary Fletcher - Home Town Country (Liner)
TTITLE25=Mary Fletcher - Kickin' Country (Liner)
TTITLE26=Mary Fletcher - More of the Country You Love (Liner)
TTITLE27=Mary Fletcher - My New Single (Liner)
TTITLE28=Mary Fletcher - The Best In Country Music (Liner)
TTITLE29=Mary Fletcher - Today's Best Country (Liner)
TTITLE30=Mary Fletcher - Today's Hot Country Music (Liner)
TTITLE31=Lindsay Lawler - Home Town Country (Liner)
TTITLE32=Lindsay Lawler - Kickin' Country (Liner)
TTITLE33=Lindsay Lawler - More of the Country You Love (Liner)
TTITLE34=Lindsay Lawler - My New Single (Liner)
TTITLE35=Lindsay Lawler - Super Country (Liner)
TTITLE36=Lindsay Lawler - The Best In Country Music (Liner)
TTITLE37=Lindsay Lawler - Today's Best Country (Liner)
TTITLE38=Lindsay Lawler - Today's Hot Country Music (Liner)
TTITLE39=Emily Minor - Home Town Country (Liner)
TTITLE40=Emily Minor - Kickin' Country (Liner)
TTITLE41=Emily Minor - More of the Country You Love (Liner)
TTITLE42=Emily Minor - My New Single (Liner)
TTITLE43=Emily Minor - Super Country (Liner)
TTITLE44=Emily Minor - The Best In Country Music (Liner)
TTITLE45=Emily Minor - Today's Best Country (Liner)
TTITLE46=Emily Minor - Today's Hot Country Music (Liner)
TTITLE47=Michelle Wright - Home Town Country (Liner)
TTITLE48=Michelle Wright - Kickin' Country (Liner)
TTITLE49=Michelle Wright - More of the Country You Love Next (Liner)
TTITLE50=Michelle Wright - My New Single (Liner)
TTITLE51=Michelle Wright - Super Country (Liner)
TTITLE52=Michelle Wright - The Best In Country Music (Liner)
TTITLE53=Michelle Wright - Today's Best Country (Liner)
TTITLE54=Michelle Wright - Today's Hot Country Music (Liner)
EXTD=
EXTT0=
EXTT1=
EXTT2=
EXTT3=
EXTT4=
EXTT5=
EXTT6=
EXTT7=
EXTT8=
EXTT9=
EXTT10=
EXTT11=
EXTT12=
EXTT13=
EXTT14=
EXTT15=
EXTT16=
EXTT17=
EXTT18=
EXTT19=
EXTT20=
EXTT21=
EXTT22=
EXTT23=
EXTT24=
EXTT25=
EXTT26=
EXTT27=
EXTT28=
EXTT29=
EXTT30=
EXTT31=
EXTT32=
EXTT33=
EXTT34=
EXTT35=
EXTT36=
EXTT37=
EXTT38=
EXTT39=
EXTT40=
EXTT41=
EXTT42=
EXTT43=
EXTT44=
EXTT45=
EXTT46=
EXTT47=
EXTT48=
EXTT49=
EXTT50=
EXTT51=
EXTT52=
EXTT53=
EXTT54=
PLAYORDER=
